<svg width="256" height="136" viewBox="0 0 256 136" fill="none" xmlns="http://www.w3.org/2000/svg">
<path d="M166.78 16.1953H187.1C197.811 16.1953 211 16 219.224 16.1953H226.584C227.058 16.1953 227.885 16.0529 228.118 15.5956C228.351 15.1383 227.925 14.9359 227.483 14.9359H207.163C196.453 14.9359 185.75 14.9359 175.04 14.9359H167.68C167.206 14.9359 166.378 15.0783 166.145 15.5356C165.912 15.9929 166.338 16.1953 166.78 16.1953Z" fill="black"/>
<path d="M196.453 76.4143C200.354 76.4143 203.516 76.119 203.516 75.7547C203.516 75.3903 200.354 75.095 196.453 75.095C192.553 75.095 189.391 75.3903 189.391 75.7547C189.391 76.119 192.553 76.4143 196.453 76.4143Z" fill="black" stroke="black" stroke-miterlimit="10"/>
<path d="M227.388 1L220.96 7.74681" stroke="black" stroke-width="1.5" stroke-miterlimit="10"/>
<path d="M206.497 23.4893L200.873 29.8612" stroke="black" stroke-width="1.5" stroke-miterlimit="10"/>
<path d="M220.773 12.7028C222.355 10.3102 222.061 7.46316 220.116 6.34371C218.171 5.22425 215.312 6.25629 213.73 8.64885C212.148 11.0414 212.442 13.8885 214.387 15.0079C216.332 16.1274 219.191 15.0953 220.773 12.7028Z" stroke="black" stroke-width="1.5" stroke-miterlimit="10"/>
<path d="M213.792 21.8109C215.374 19.4184 215.079 16.5713 213.134 15.4519C211.189 14.3324 208.33 15.3644 206.748 17.757C205.166 20.1496 205.461 22.9966 207.406 24.1161C209.351 25.2355 212.21 24.2035 213.792 21.8109Z" stroke="black" stroke-width="1.5" stroke-miterlimit="10"/>
<path d="M213.792 21.8109C215.374 19.4184 215.079 16.5713 213.134 15.4519C211.189 14.3324 208.33 15.3644 206.748 17.757C205.166 20.1496 205.461 22.9966 207.406 24.1161C209.351 25.2355 212.21 24.2035 213.792 21.8109Z" stroke="black" stroke-opacity="0.2" stroke-width="1.5" stroke-miterlimit="10"/>
<path d="M40.9532 76.0994L34.9672 62.5233C32.2353 62.3509 29.9534 62.021 28.1214 61.5263C26.2895 61.0315 24.6102 60.4918 23.0996 59.892C21.589 59.3148 19.9419 58.7901 18.1822 58.3178C16.4146 57.8455 14.2371 57.5382 11.6418 57.3882L3.6953 76.0994H0.802734L20.4159 30.7458H26.3698L45.9107 76.0994H40.9532ZM12.2605 55.9414C15.1531 56.0913 17.5394 56.4137 19.4357 56.901C21.3319 57.3957 23.0434 57.9355 24.578 58.5352C25.9118 59.045 27.334 59.5172 28.8446 59.9295C30.3551 60.3493 32.1469 60.6492 34.2119 60.8441L21.9988 33.1147L12.2605 55.9339V55.9414Z" fill="black"/>
<path d="M59.7385 74.6826H86.6073V76.0919H54.54V75.9345L54.5078 74.6826H54.54L54.5078 30.7759H59.7064L59.7385 74.6826Z" fill="black"/>
<path d="M148.734 30.7458H150.453L131.427 76.0994H125.786L113.605 48.9472L102.22 76.0994H96.5794L76.2832 30.8433L81.7871 30.7458L101.328 74.0753L112.713 46.9532L105.49 30.8433L110.994 30.7458L130.535 74.0753L148.734 30.7458Z" fill="black"/>
<path d="M181.732 76.0995L175.746 62.5234C173.015 62.351 170.733 62.0212 168.901 61.5264C167.069 61.0316 165.389 60.4919 163.879 59.8922C162.368 59.3149 160.721 58.7902 158.962 58.3179C157.194 57.8456 155.016 57.5383 152.421 57.3884L144.475 76.0995H141.582L161.195 30.746H167.149L186.69 76.0995H181.732ZM153.04 55.9415C155.932 56.0915 158.319 56.4138 160.215 56.9011C162.111 57.3959 163.823 57.9356 165.357 58.5353C166.683 59.0451 168.113 59.5173 169.624 59.9297C171.134 60.3495 172.926 60.6493 174.991 60.8442L162.778 33.1149L153.04 55.934V55.9415Z" fill="black"/>
<path d="M227.596 15.5806H225.973C225.973 15.5806 225.909 15.5956 225.885 15.618L217.778 24.7412L212 31.2481C211.888 31.4131 211.759 31.563 211.599 31.6979L196.63 48.5575L168.869 15.6255C168.845 15.6031 168.813 15.5881 168.781 15.5881H166.941C166.668 15.5881 166.507 15.8729 166.668 16.0828L193.986 51.9009C193.986 51.9009 194.01 51.9384 194.01 51.9608V75.9945C194.01 76.0544 194.059 76.0994 194.123 76.0994H199.096C199.161 76.0994 199.209 76.0544 199.209 75.9945V51.9608C199.209 51.9608 199.209 51.9159 199.233 51.9009L227.693 15.753C227.749 15.6855 227.693 15.5881 227.604 15.5881L227.596 15.5806Z" fill="black"/>
<path d="M246.165 34.8839C245.273 34.1342 244.373 33.512 243.482 33.0248C242.59 32.53 241.481 32.1027 240.163 31.7279C238.845 31.3531 237.303 31.1657 235.535 31.1657C233.767 31.1657 232.257 31.443 230.923 31.9978C229.589 32.5525 228.488 33.2722 227.605 34.1492C226.721 35.0263 226.062 35.9634 225.628 36.9604C225.194 37.9574 224.977 38.902 224.977 39.8016C224.977 41.1959 225.572 42.4703 226.769 43.6397C227.958 44.8092 229.517 45.9262 231.429 46.9907C233.341 48.0627 235.415 49.1421 237.64 50.2291C239.681 51.2112 241.69 52.2457 243.658 53.3252C245.627 54.4047 247.435 55.5666 249.058 56.811C250.689 58.0554 251.991 59.4198 252.979 60.9041C253.967 62.3884 254.457 64.0301 254.457 65.8292C254.457 67.2011 254.08 68.5505 253.324 69.8773C252.569 71.2042 251.388 72.3961 249.781 73.4531C248.174 74.5101 246.101 75.3572 243.554 75.9869C241.007 76.6166 237.962 76.9315 234.402 76.9315C231.534 76.9315 229.123 76.7516 227.179 76.3842C225.234 76.0169 223.635 75.5746 222.398 75.0349C221.161 74.4951 220.204 73.9629 219.546 73.4156C218.879 72.8684 218.421 72.4186 218.172 72.0513L217.794 71.5041H223.37L223.579 71.9239C223.692 72.2012 223.949 72.5461 224.35 72.9659C224.752 73.3857 225.355 73.798 226.158 74.2178C226.962 74.6376 228.022 74.9824 229.34 75.2598C230.658 75.5371 232.329 75.6796 234.346 75.6796C236.845 75.6796 239.006 75.4097 240.83 74.8625C242.654 74.3152 244.156 73.6106 245.338 72.741C246.519 71.8714 247.395 70.9343 247.973 69.9148C248.544 68.8953 248.833 67.9208 248.833 66.9762C248.833 65.327 248.383 63.8277 247.491 62.4858C246.599 61.144 245.402 59.8771 243.915 58.7151C242.421 57.5457 240.758 56.4437 238.91 55.4092C237.062 54.3747 235.173 53.3626 233.253 52.3731C231.437 51.451 229.71 50.529 228.055 49.5994C226.399 48.6699 224.913 47.7028 223.579 46.7133C222.245 45.7163 221.193 44.6593 220.413 43.5348C219.634 42.4103 219.24 41.1959 219.24 39.8915C219.24 38.0099 220.052 36.3007 221.683 34.7714C223.314 33.2422 225.379 32.0277 227.894 31.1282C230.409 30.2286 232.98 29.7788 235.615 29.7788C238.524 29.7788 240.934 30.0337 242.839 30.5509C244.743 31.0607 246.254 31.6529 247.362 32.3126C248.471 32.9798 249.259 33.5645 249.717 34.0818L250.408 34.8839H246.173H246.165Z" fill="black"/>
<path d="M179.194 28.5195C182.858 28.5045 182.858 30.0038 186.522 29.9888C190.186 29.9738 190.178 28.4745 193.842 28.4595C197.506 28.4445 197.506 29.9438 201.17 29.9288C204.834 29.9138 204.826 28.4145 208.49 28.3995C212.154 28.3845 212.162 29.8838 215.825 29.8688" stroke="black" stroke-miterlimit="10"/>
<path d="M219 10C219.552 10 220 9.55229 220 9C220 8.44771 219.552 8 219 8C218.448 8 218 8.44771 218 9C218 9.55229 218.448 10 219 10Z" fill="black"/>
<path d="M212 19C212.552 19 213 18.5523 213 18C213 17.4477 212.552 17 212 17C211.448 17 211 17.4477 211 18C211 18.5523 211.448 19 212 19Z" fill="black"/>
<path d="M0 79.7126H255.108" stroke="black" stroke-width="2"/>
<path d="M164.733 84.1064H143.351L143.378 101.497H160.222V102.7H143.378V121.513H139.249L139.222 102.017V82.9033H164.733V84.1064ZM171.569 82.9033H175.698L175.726 121.513H171.597L171.569 82.9033ZM216.933 82.876H218.3L203.179 121.513H198.694L182.562 82.958L186.937 82.876L202.468 119.79L216.933 82.876ZM250.647 84.1064H229.265L229.292 101.497H246.136V102.7H229.292V120.31H250.647V121.513H225.163V121.376L225.136 120.31H225.163L225.136 102.017V82.9033H250.647V84.1064Z" fill="black"/>
</svg>
