<svg width="309" height="40" viewBox="0 0 309 40" fill="none" xmlns="http://www.w3.org/2000/svg">
<path d="M18.0937 0.0173062C18.0937 0.0173062 0 0.614052 0 19.9751C0 39.4025 18.0937 39.9992 18.0937 39.9992L290.161 40V32.2423L18.4227 32.2416C18.4227 32.2416 7.69804 31.5785 7.69804 19.9751C7.69804 8.43805 18.4227 7.775 18.4227 7.775L290.161 7.77576V0.018065L18.0937 0.0173062Z" fill="black" fill-opacity="0.15"/>
<path d="M19.463 0C19.463 0 1.36936 0.596745 1.36936 19.9578C1.36936 39.3852 19.463 39.9819 19.463 39.9819H33.6748V32.2242H19.792C19.792 32.2242 9.0674 31.5612 9.0674 19.9578C9.0674 8.42074 19.792 7.75769 19.792 7.75769H33.6748V0H19.463Z" fill="black"/>
<path d="M48.5312 39.9819H79.3891V32.2242H56.1634V0H48.5312V39.9819Z" fill="black"/>
<path d="M104.657 0L92.2876 39.9819H101.038L111.302 7.55877L121.566 39.9819H130.383L118.013 0H104.657Z" fill="black"/>
<path d="M152.929 39.9819V0H145.296V39.9819H152.929Z" fill="black"/>
<path d="M171.062 0V39.9819H178.694V13.9241L186.326 30.2351H192.774L200.407 13.9241V39.9819H208.039V0H198.433L189.55 21.4828L180.668 0H171.062Z" fill="black"/>
<path d="M226.191 16.1121V23.8698H257.049V16.1121H226.191ZM226.191 32.2242V39.9819H257.049V32.2242H226.191ZM226.191 0V7.75769H257.049V0H226.191Z" fill="black"/>
<path d="M290.906 0H273.931V7.75769H290.577C290.577 7.75769 301.236 8.42074 301.236 19.9578C301.236 31.5612 290.577 32.2242 290.577 32.2242H273.931V39.9819H290.906C290.906 39.9819 309 39.3852 309 19.9578C309 0.596745 290.906 0 290.906 0Z" fill="black"/>
</svg>
