<svg width="251" height="89" viewBox="0 0 251 89" fill="none" xmlns="http://www.w3.org/2000/svg">
<path d="M31.3354 23.6155V24.5964H15.6677L15.6921 60.1055C15.6921 61.0701 15.8545 61.8875 16.1794 62.5578C16.5205 63.2281 17.081 63.4406 17.8607 63.1954C18.6567 62.9338 19.745 61.9039 21.1258 60.1055L21.9055 60.6941L21.004 61.9202C20.4842 62.6232 19.7938 63.3998 18.9328 64.2499C18.0719 65.1 17.1135 65.803 16.0576 66.3589C15.9439 66.4242 15.822 66.4815 15.6921 66.5305C15.0423 66.7757 14.3763 66.8984 13.694 66.8984C13.2879 66.8984 12.8818 66.8493 12.4757 66.7512C12.362 66.7185 12.2726 66.694 12.2077 66.6777C10.502 66.1382 9.29179 64.9529 8.57703 63.1218C8.56079 63.0564 8.53642 62.9911 8.50393 62.9257C8.309 62.2554 8.19529 61.5606 8.1628 60.8412C8.13031 60.2527 8.12219 59.6641 8.13843 59.0756C8.13843 58.7486 8.13843 56.5334 8.13843 52.4299C8.15468 48.31 8.1628 43.6098 8.1628 38.3292C8.1628 33.0323 8.1628 28.4547 8.1628 24.5964H0V23.6155H8.1628C8.1628 22.6182 8.1628 21.76 8.1628 21.0406C8.13031 20.6973 8.11407 20.354 8.11407 20.0107C8.11407 19.6673 8.13031 19.324 8.1628 18.9807C8.39022 16.8063 9.16995 14.8363 10.502 13.0707C11.834 11.305 13.5559 9.88271 15.6677 8.80371C18.1044 7.54487 20.7928 6.91545 23.733 6.91545C25.9585 6.91545 28.054 7.28329 30.0196 8.01898C30.1333 8.05167 30.2389 8.10072 30.3364 8.16611C30.58 8.28055 30.7831 8.43586 30.9455 8.63205C31.2055 8.95902 31.3354 9.34321 31.3354 9.78462C31.3354 10.2914 31.1567 10.7247 30.7993 11.0843C30.4582 11.4277 30.0359 11.5993 29.5323 11.5993C29.1749 11.5993 28.8581 11.5094 28.582 11.3296C28.582 11.3296 28.582 11.3214 28.582 11.305C28.3546 11.1742 28.1678 10.9944 28.0216 10.7655C26.6895 9.55574 25.5118 8.77918 24.4884 8.43586C23.4812 8.07619 22.7178 7.92088 22.1979 7.96993C22.1979 7.96993 22.1898 7.96993 22.1736 7.96993C21.5888 8.01898 21.0121 8.10072 20.4436 8.21516C19.3714 8.46039 18.5186 9.08163 17.8851 10.0789C17.2515 11.0762 16.7723 12.2369 16.4474 13.5611C16.1388 14.869 15.9276 16.1279 15.8139 17.3377C15.7164 18.5311 15.6677 19.4548 15.6677 20.1087V23.6155H31.3354Z" fill="black"/>
<path d="M66.472 36.2448C67.7066 39.1221 68.2832 42.0077 68.202 44.9014C68.202 45.0158 68.202 45.1302 68.202 45.2447C68.202 48.1384 67.666 50.9013 66.5938 53.5334C65.5217 56.1492 63.9622 58.487 61.9155 60.5469C59.8687 62.5905 57.5376 64.16 54.9222 65.2553C52.3231 66.3343 49.5941 66.8738 46.7351 66.8738C45.3056 66.8738 43.9086 66.7431 42.544 66.4815C38.3205 65.6313 34.6493 63.6532 31.5303 60.5469C29.4835 58.487 27.9241 56.1492 26.852 53.5334C25.7798 50.9013 25.2438 48.1384 25.2438 45.2447C25.2438 42.3673 25.7798 39.6208 26.852 37.005C27.9241 34.3729 29.4835 32.0269 31.5303 29.9669C33.5771 27.907 35.9001 26.3376 38.4992 25.2585C41.1145 24.1632 43.8598 23.6155 46.7351 23.6155C48.522 23.6155 50.2682 23.8362 51.9739 24.2776C51.9739 24.2776 51.982 24.2776 51.9983 24.2776C52.0307 24.2776 52.0632 24.2858 52.0957 24.3022C50.8287 22.4057 49.3017 20.3295 47.5148 18.0733C45.7279 15.8009 43.738 13.5938 41.545 11.4522L33.6259 19.4221H27.3393L38.2799 8.41134C35.9569 6.36777 33.3741 4.2915 30.5313 2.18253C30.6288 2.21523 31.4491 2.71386 32.9923 3.67843C34.5355 4.62665 36.5499 5.95088 39.0352 7.65113L46.6376 0H52.9242L42.6902 10.2996C45.5492 12.3759 48.4732 14.7382 51.4622 17.3867C54.4674 20.0188 57.2533 22.8471 59.8199 25.8716C62.3865 28.8798 64.4415 31.986 65.9847 35.1903C66.1634 35.5336 66.3258 35.8851 66.472 36.2448ZM51.8277 65.2553C54.8654 64.1763 57.0827 61.724 58.4798 57.8985C59.8768 54.0729 60.2017 49.6097 59.4544 44.509C59.3407 43.8387 59.2108 43.1684 59.0646 42.4981C58.2523 38.8851 57.0096 35.7216 55.3365 33.0078C53.6633 30.2776 51.7546 28.1931 49.6103 26.7544C47.4661 25.2994 45.2731 24.6945 43.0314 24.9397C42.5278 25.0378 42.0242 25.1523 41.5206 25.2831C40.6922 25.561 39.9206 25.9615 39.2058 26.4847C36.6879 28.3975 34.9985 31.4138 34.1376 35.5336C33.3253 39.2938 33.3984 43.4463 34.3569 47.9912C35.5102 52.9776 37.4027 57.0647 40.0343 60.2527C42.6659 63.4406 45.5411 65.2226 48.66 65.5987C49.2611 65.6477 49.8621 65.6313 50.4632 65.5496C50.918 65.4679 51.3728 65.3698 51.8277 65.2553Z" fill="black"/>
<path d="M98.3191 24.3267C99.0014 24.8008 99.375 25.3975 99.44 26.1168C99.5212 26.8198 99.3425 27.4574 98.9039 28.0296C98.4815 28.6018 97.848 28.9043 97.0033 28.937C96.9221 28.9206 96.8327 28.9125 96.7353 28.9125C95.7444 28.7653 94.3636 28.6836 92.593 28.6672C90.8386 28.6509 88.9623 28.937 86.9643 29.5255C84.9662 30.1141 83.1144 31.2503 81.4087 32.9342C80.9214 33.5228 80.4503 34.1113 79.9954 34.6998C79.9954 36.8579 79.9954 40.2747 79.9954 44.9504C80.0117 49.6261 80.0198 53.7623 80.0198 57.359C80.0198 58.6015 80.0198 59.5987 80.0198 60.3508C80.0198 61.3153 80.1823 62.1328 80.5071 62.8031C80.8483 63.4733 81.4087 63.6859 82.1884 63.4406C82.9844 63.1791 84.0728 62.1491 85.4535 60.3508L86.2333 60.9393C85.5185 61.9856 84.6982 63.0074 83.7723 64.0047C82.8463 65.0019 81.7173 65.8684 80.3853 66.6041C79.1345 67.1926 77.8512 67.2989 76.5354 66.9229C75.2358 66.4815 74.2449 65.7458 73.5627 64.7158C72.8967 63.6695 72.5393 62.4597 72.4905 61.0864C72.4743 59.5497 72.4662 56.9012 72.4662 53.141C72.4824 49.3809 72.4905 45.6289 72.4905 41.885C72.4905 39.6943 72.4905 37.8388 72.4905 36.3184C72.4905 34.7816 72.4905 33.8334 72.4905 33.4737C72.4743 31.5119 72.0925 30.2122 71.3453 29.5746C70.5981 28.937 69.7127 28.8307 68.6893 29.2558L68.3239 28.3484C69.8346 27.7762 71.7677 27.0405 74.1231 26.1414C76.4785 25.2422 78.436 24.4902 79.9954 23.8853V33.1059C82.091 30.2612 84.5601 27.9724 87.4029 26.2395C90.2457 24.5065 93.4783 23.7463 97.1008 23.9588C97.5556 23.9752 97.9617 24.0978 98.3191 24.3267Z" fill="black"/>
<path d="M137.233 57.2364H138.329C137.322 59.1818 135.925 60.8739 134.138 62.3126C132.367 63.7513 130.402 64.8384 128.241 65.5741C126.211 66.3262 123.815 66.7921 121.053 66.9719C118.292 67.1518 116.147 67.1518 114.62 66.9719C111.014 66.645 107.733 65.4679 104.776 63.4406C101.836 61.3971 99.4968 58.8058 97.7587 55.6669C96.0368 52.5116 95.1839 49.1029 95.2002 45.4409C95.1839 41.5009 96.1505 37.8878 98.0998 34.6018C100.065 31.3157 102.681 28.6917 105.946 26.7299C109.211 24.7517 112.793 23.779 116.691 23.8117C121.126 23.8117 125.171 25.0787 128.826 27.6127C132.481 30.1304 135.121 33.4655 136.745 37.6181C136.875 37.945 136.997 38.272 137.111 38.599H103.753C103.395 42.2774 103.769 46.1193 104.874 50.1247C105.978 54.1301 107.611 57.5061 109.771 60.2527C114.531 65.7785 121.142 67.0128 129.606 63.9556C133.001 62.4352 135.543 60.1954 137.233 57.2364ZM104.874 33.1794C104.403 34.5691 104.061 36.0486 103.85 37.6181C105.02 37.6181 107.254 37.6181 110.551 37.6181C113.865 37.6181 117.154 37.6181 120.42 37.6181C123.701 37.6181 126.04 37.6181 127.437 37.6181C126.674 35.7216 125.691 33.8824 124.489 32.1004C123.303 30.3021 121.906 28.7735 120.298 27.5147C118.69 26.2558 116.886 25.4711 114.888 25.1605C112.403 24.9479 110.299 25.6346 108.577 27.2204C106.872 28.7898 105.637 30.7762 104.874 33.1794Z" fill="black"/>
<path d="M154.46 60.3017L155.239 60.8903C154.525 61.9366 153.704 62.9584 152.778 63.9556C151.869 64.9529 150.74 65.8194 149.391 66.555C148.141 67.1436 146.857 67.2499 145.542 66.8738C144.242 66.4324 143.251 65.6967 142.569 64.6668C141.903 63.6368 141.545 62.427 141.497 61.0374C141.48 59.5006 141.472 56.8522 141.472 53.092C141.489 49.3318 141.497 45.588 141.497 41.8605C141.497 39.6535 141.497 37.7897 141.497 36.2693C141.497 34.7325 141.497 33.7925 141.497 33.4492C141.497 31.471 141.115 30.1713 140.351 29.55C139.604 28.9125 138.719 28.8062 137.695 29.2312L137.33 28.2994C138.841 27.7272 140.774 26.9915 143.129 26.0923C145.485 25.1932 147.442 24.4493 149.002 23.8607L149.026 60.3262C149.026 61.2908 149.188 62.1082 149.513 62.7785C149.854 63.4325 150.415 63.6368 151.195 63.3916C151.991 63.13 153.079 62.1001 154.46 60.3017ZM140.4 15.2042C140.4 16.3649 140.806 17.3622 141.618 18.196C142.447 19.0134 143.438 19.4221 144.591 19.4221C145.761 19.4221 146.752 19.0134 147.564 18.196C148.392 17.3622 148.807 16.3649 148.807 15.2042C148.807 14.0434 148.392 13.0543 147.564 12.2369C146.752 11.4031 145.761 10.9862 144.591 10.9862C143.438 10.9862 142.447 11.4031 141.618 12.2369C140.806 13.0543 140.4 14.0434 140.4 15.2042Z" fill="black"/>
<path d="M207.871 77.5413C208.099 79.6829 207.709 81.5794 206.702 83.2306C205.711 84.8981 204.314 86.2306 202.511 87.2278C200.707 88.2251 198.726 88.7891 196.565 88.9199C195.136 89.0343 193.706 89.0262 192.277 88.8954C190.847 88.7809 189.434 88.6174 188.037 88.4049C185.958 88.127 183.894 87.7101 181.848 87.1542C179.817 86.6147 177.795 86.0344 175.78 85.4131C173.571 84.7265 171.354 84.0971 169.128 83.5249C166.919 82.9527 164.686 82.5439 162.428 82.2987C158.984 81.9554 155.938 82.0371 153.29 82.5439C150.658 83.0671 148.376 84.2442 146.443 86.0752L145.761 85.3641C147.726 83.4513 150.131 82.2006 152.973 81.6121C155.816 81.0399 159 80.9418 162.525 81.3178C164.848 81.5957 167.147 82.0208 169.421 82.593C171.695 83.1815 173.953 83.8191 176.195 84.5058C178.664 85.2742 181.141 85.969 183.626 86.5902C186.128 87.2115 188.67 87.6202 191.253 87.8164C192.553 87.6038 193.844 87.1951 195.127 86.5902C196.427 85.9853 197.532 85.1761 198.441 84.1625C199.367 83.1488 199.936 81.9309 200.147 80.5086C200.293 78.4977 199.652 76.7811 198.222 75.3587C196.711 73.9855 194.941 73.168 192.91 72.9065C190.88 72.6449 188.906 72.792 186.989 73.3479L171.638 79.2088C170.209 79.781 168.706 80.2878 167.13 80.7293C165.555 81.1707 163.946 81.3505 162.306 81.2688C160.73 81.1707 159.195 80.6557 157.7 79.7238C156.206 78.792 155.191 77.4268 154.655 75.6285C154.281 74.0427 154.37 72.5386 154.923 71.1163C155.475 69.7103 156.214 68.5332 157.14 67.585C158.05 66.6531 159.049 65.8521 160.137 65.1818C161.242 64.4951 162.346 63.8902 163.451 63.3671C159.763 60.784 157.156 57.5143 155.629 53.5579C154.102 49.5852 153.721 45.5063 154.484 41.321C155.248 37.1358 157.213 33.4328 160.381 30.2122C163.5 27.0896 167.195 25.1196 171.468 24.3022C175.756 23.4684 179.923 23.8934 183.968 25.5773C184.081 25.61 185.032 25.6836 186.818 25.798C188.605 25.8961 190.717 25.8716 193.154 25.7245C195.607 25.561 197.881 25.1032 199.976 24.3512C199.993 24.3512 200.009 24.343 200.025 24.3267C200.058 24.3267 200.082 24.3185 200.098 24.3022C200.553 24.155 201 24.1714 201.438 24.3512C202.104 24.6618 202.486 25.1196 202.584 25.7245C202.681 26.313 202.543 26.8525 202.169 27.343C201.812 27.8171 201.26 28.0378 200.512 28.0051L186.282 26.7544C187.907 27.6863 189.401 28.8389 190.766 30.2122C193.544 32.9751 195.395 36.2203 196.321 39.9477C197.247 43.6589 197.247 47.37 196.321 51.0811C195.395 54.7922 193.544 58.0293 190.766 60.7922C187.972 63.5878 184.69 65.476 180.922 66.457C177.169 67.4215 173.409 67.3725 169.64 66.3098C167.642 66.3425 165.668 66.6695 163.719 67.2907C161.786 67.912 160.08 68.8684 158.602 70.1599C157.14 71.4514 156.125 73.1353 155.556 75.2116C155.995 76.8138 156.88 78.0399 158.212 78.89C159.544 79.7402 160.933 80.2143 162.379 80.3124C163.922 80.3778 165.449 80.1898 166.96 79.7483C168.47 79.3233 169.916 78.8328 171.297 78.277L186.843 72.367C188.662 71.6313 190.571 70.9855 192.569 70.4297C194.583 69.8738 196.638 69.6694 198.734 69.8166C200.91 70.0291 202.884 70.8302 204.655 72.2198C206.425 73.6258 207.498 75.3996 207.871 77.5413ZM163.207 48.261C164.02 51.8904 165.262 55.0702 166.935 57.8004C168.625 60.5306 170.542 62.615 172.686 64.0537C174.846 65.476 177.047 66.0646 179.289 65.8194C179.305 65.8194 179.314 65.8194 179.314 65.8194C179.768 65.7213 180.215 65.615 180.654 65.5006C183.139 64.536 185.023 62.8766 186.307 60.5224C187.59 58.1682 188.337 55.438 188.549 52.3318C188.776 49.2256 188.532 46.0539 187.818 42.8169C187.119 39.5799 186.023 36.5963 184.528 33.8661C183.034 31.1359 181.214 28.9697 179.07 27.3675C176.926 25.7654 174.53 25.046 171.882 25.2095C171.362 25.2912 170.85 25.3975 170.347 25.5283C168.235 26.2803 166.505 27.7681 165.157 29.9915C163.825 32.1985 162.972 34.896 162.598 38.084C162.224 41.2556 162.428 44.648 163.207 48.261Z" fill="black"/>
<path d="M250.22 60.3508L251 60.9393C250.285 61.9856 249.465 63.0156 248.539 64.0292C247.613 65.0265 246.484 65.8929 245.152 66.6286C243.999 67.1681 242.797 67.2907 241.546 66.9965C239.629 66.4896 238.313 65.2145 237.598 63.1709C237.387 62.5006 237.273 61.814 237.257 61.111C237.241 60.9311 237.233 59.9747 237.233 58.2418C237.233 56.4925 237.233 54.3672 237.233 51.8658C237.233 49.3645 237.233 46.9122 237.233 44.509C237.249 42.3673 237.257 40.5772 237.257 39.1385C237.257 37.6998 237.257 36.8906 237.257 36.7107C237.257 36.7107 237.257 36.6944 237.257 36.6617C237.29 36.3838 237.265 35.5827 237.184 34.2584C237.103 32.9342 236.794 31.5282 236.258 30.0405C235.738 28.5364 234.821 27.3839 233.505 26.5828C232.205 25.7654 230.353 25.7245 227.949 26.4602C225.919 27.2449 224.116 28.283 222.54 29.5746C220.98 30.8498 219.608 32.2067 218.422 33.6454C217.252 35.084 216.237 36.4328 215.376 37.6916C215.376 37.9532 215.376 39.351 215.376 41.885C215.376 44.4027 215.376 47.3945 215.376 50.8604C215.376 54.31 215.376 57.5633 215.376 60.6205C215.376 63.6613 215.376 65.8439 215.376 67.1681V67.2172H207.847V67.1681C207.847 67.1681 207.847 65.4597 207.847 62.0428C207.847 58.6096 207.847 54.7023 207.847 50.3209C207.863 45.9395 207.871 42.0404 207.871 38.6235C207.871 35.1903 207.871 33.4737 207.871 33.4737C207.822 31.7735 207.554 30.6127 207.067 29.9915C206.596 29.3539 206.068 29.0351 205.483 29.0351C204.898 29.0187 204.419 29.0923 204.046 29.2558L203.705 28.3484C204.842 27.9234 206.344 27.3512 208.212 26.6318C210.08 25.9125 211.827 25.2422 213.451 24.621C214.198 24.343 214.832 24.0978 215.352 23.8853V35.9996C216.635 34.2176 218.17 32.411 219.957 30.58C221.76 28.7326 223.726 27.1795 225.854 25.9207C227.982 24.6618 230.175 24.0161 232.433 23.9834C234.187 23.9834 235.795 24.2041 237.257 24.6455C239.499 25.3158 241.302 26.5256 242.667 28.2749C244.047 30.0242 244.746 32.0596 244.762 34.3811C244.762 35.1494 244.762 36.7925 244.762 39.3101C244.778 41.8115 244.787 44.5989 244.787 47.6724C244.787 50.7296 244.787 53.468 244.787 55.8876C244.787 58.3072 244.778 59.8031 244.762 60.3753C244.762 61.3399 244.925 62.1573 245.249 62.8276C245.591 63.4979 246.159 63.7104 246.955 63.4652C247.751 63.2036 248.84 62.1655 250.22 60.3508Z" fill="black"/>
</svg>
