<svg width="255" height="62" viewBox="0 0 255 62" fill="none" xmlns="http://www.w3.org/2000/svg">
<path d="M46.9187 60H44.8387L7.71871 17.52V60H0.678711V1.44H2.75871L40.1187 44.48V1.44H46.9187V60Z" fill="black"/>
<path d="M87.4095 0C93.1161 0 98.3695 1.36 103.169 4.08C107.969 6.74667 111.729 10.4533 114.449 15.2C117.223 19.9467 118.609 25.12 118.609 30.72C118.609 36.2667 117.249 41.4133 114.529 46.16C111.809 50.9067 108.076 54.64 103.329 57.36C98.5828 60.08 93.4095 61.44 87.8095 61.44C82.2628 61.44 77.0895 60.1067 72.2895 57.44C67.4895 54.72 63.7295 51.0133 61.0095 46.32C58.2895 41.5733 56.9295 36.4267 56.9295 30.88C56.9295 25.28 58.2895 20.1067 61.0095 15.36C63.7295 10.56 67.4361 6.8 72.1295 4.08C76.8761 1.36 81.9695 0 87.4095 0ZM87.6495 54.72C94.3161 54.72 99.9428 52.4533 104.529 47.92C109.169 43.3867 111.489 37.7067 111.489 30.88C111.489 24.0533 109.143 18.32 104.449 13.68C99.8095 9.04 94.2095 6.72 87.6495 6.72C80.9295 6.72 75.3028 9.06667 70.7695 13.76C66.2895 18.4 64.0495 24.08 64.0495 30.8C64.0495 37.4667 66.3695 43.12 71.0095 47.76C75.6495 52.4 81.1961 54.72 87.6495 54.72Z" fill="black"/>
<path d="M155.493 8.16H142.693V60H135.733V8.16H122.853V1.44H155.493V8.16Z" fill="black"/>
<path d="M196.347 8.24H169.147V25.04H196.107V31.76H169.147V53.2H196.107V60H162.267V1.44H196.347V8.24Z" fill="black"/>
<path d="M204.67 1.44H217.15C225.576 1.44 231.71 2.08 235.55 3.36C239.39 4.58667 242.697 6.53333 245.47 9.2C248.296 11.8133 250.456 15.0133 251.95 18.8C253.443 22.5867 254.19 26.96 254.19 31.92C254.19 36.88 253.07 41.5733 250.83 46C248.643 50.3733 245.496 53.8133 241.39 56.32C237.336 58.7733 231.39 60 223.55 60H204.67V1.44ZM211.31 53.44H217.39C224.163 53.44 229.097 53.0933 232.19 52.4C235.283 51.7067 237.977 50.3733 240.27 48.4C242.563 46.4267 244.296 44.0267 245.47 41.2C246.697 38.32 247.31 35.0133 247.31 31.28C247.31 27.5467 246.59 24.1067 245.15 20.96C243.763 17.76 241.763 15.1733 239.15 13.2C236.537 11.1733 233.47 9.84 229.95 9.2C226.43 8.50667 221.39 8.16 214.83 8.16H211.31V53.44Z" fill="black"/>
</svg>
